Coordinates
version=1
nRows=20
nColumns=38
inDegrees=no

Units are S.I. units (second, meters, Newtons, ...)
If the header above contains a line with 'inDegrees', this indicates whether rotational values are in degrees (yes) or radians (no).

endheader
time	pelvis_tilt	pelvis_list	pelvis_rotation	pelvis_tx	pelvis_ty	pelvis_tz	hip_flexion_r	hip_adduction_r	hip_rotation_r	knee_angle_r	ankle_angle_r	subtalar_angle_r	mtp_angle_r	hip_flexion_l	hip_adduction_l	hip_rotation_l	knee_angle_l	ankle_angle_l	subtalar_angle_l	mtp_angle_l	lumbar_extension	lumbar_bending	lumbar_rotation	arm_flex_r	arm_add_r	arm_rot_r	elbow_flex_r	pro_sup_r	wrist_flex_r	wrist_dev_r	arm_flex_l	arm_add_l	arm_rot_l	elbow_flex_l	pro_sup_l	wrist_flex_l	wrist_dev_l
1.02	3.12121	1.35406	-1.43641	0.989965	0.450848	0.937244	-0.0273072	-0.010896	-0.392455	0.452236	0.11841	0	0	0.258936	-0.179261	-0.0510832	1.34476	-0.0221123	0	0	-0.276281	-0.0163407	0.0203049	0.280168	-0.462961	-0.127926	1.34797	1.5708	0	0	0.289414	-0.409039	-0.012981	1.60069	1.10573	0	0
1.03	3.14144	1.35579	-1.46392	0.991595	0.461801	0.939418	-0.0476858	-0.0109182	-0.390833	0.434072	0.116736	0	0	0.279487	-0.174601	-0.0662106	1.32845	-0.00582828	0	0	-0.27579	-0.0233937	0.0290506	0.27863	-0.461532	-0.130535	1.34701	1.5708	0	0	0.291845	-0.410706	-0.0104821	1.59855	1.11274	0	0
1.04	-3.12238	1.35653	-1.49105	0.993239	0.472813	0.941576	-0.0694729	-0.0106136	-0.388379	0.414965	0.114193	0	0	0.296457	-0.173735	-0.0864474	1.30728	0.00978234	0	0	-0.276123	-0.030275	0.0380588	0.276888	-0.459789	-0.132484	1.34664	1.5708	0	0	0.294565	-0.412926	-0.00681265	1.59688	1.1173	0	0
1.05	-3.09708	1.36002	-1.52296	0.994594	0.483584	0.943175	-0.0851727	-0.0143986	-0.392701	0.402998	0.118998	0	0	0.31579	-0.167452	-0.102217	1.28243	0.024547	0	0	-0.273203	-0.0372586	0.0421408	0.27072	-0.477106	-0.00494371	1.37976	0.943473	0	0	0.29284	-0.420103	0.00234646	1.60123	0.99672	0	0
1.06	-3.07747	1.35802	-1.55128	0.9963	0.494517	0.945552	-0.112666	-0.0117867	-0.383217	0.375486	0.109327	0	0	0.323653	-0.164377	-0.121775	1.24825	0.0388827	0	0	-0.277276	-0.0451507	0.054134	0.274997	-0.454558	-0.136404	1.34636	1.5708	0	0	0.298823	-0.418816	0.00291279	1.59488	1.09888	0	0
1.07	-3.05451	1.35936	-1.58193	0.997761	0.505281	0.947201	-0.132902	-0.0129856	-0.381317	0.356382	0.107296	0	0	0.334191	-0.159755	-0.141404	1.21008	0.0533015	0	0	-0.277091	-0.0523884	0.0606337	0.275823	-0.452209	-0.134615	1.34604	1.5708	0	0	0.299162	-0.422257	0.00487258	1.59488	1.09303	0	0
1.08	-3.03181	1.36081	-1.61195	0.999098	0.515922	0.948589	-0.152049	-0.0146121	-0.379833	0.33845	0.104951	0	0	0.342994	-0.154469	-0.160247	1.16756	0.0632359	0	0	-0.276843	-0.0591754	0.0661627	0.277834	-0.450284	-0.13137	1.34576	1.5708	0	0	0.298826	-0.425611	0.00237302	1.59586	1.09319	0	0
1.09	-3.01126	1.36308	-1.63967	1.00032	0.526539	0.949594	-0.169132	-0.0162233	-0.378657	0.322423	0.104131	0	0	0.351085	-0.149231	-0.178448	1.12156	0.0705989	0	0	-0.275517	-0.0651953	0.0712853	0.280543	-0.448767	-0.127764	1.34513	1.5708	0	0	0.29829	-0.428462	-0.00113558	1.59663	1.09508	0	0
1.1	-2.99326	1.36617	-1.66463	1.0014	0.537155	0.950188	-0.184184	-0.017694	-0.376948	0.308859	0.105293	0	0	0.358391	-0.144411	-0.197082	1.07208	0.0768398	0	0	-0.273099	-0.0702831	0.0759869	0.28388	-0.447457	-0.123896	1.34416	1.5708	0	0	0.297305	-0.431034	-0.00456073	1.59778	1.09527	0	0
1.11	-2.97496	1.36969	-1.68947	1.00237	0.54771	0.950403	-0.197378	-0.0194354	-0.373676	0.297846	0.10681	0	0	0.364151	-0.138772	-0.215759	1.01779	0.0826358	0	0	-0.270213	-0.0751038	0.0800792	0.287505	-0.445908	-0.119839	1.34359	1.5708	0	0	0.296213	-0.43337	-0.00874001	1.59949	1.095	0	0
1.12	-2.95308	1.37777	-1.71509	1.00285	0.558151	0.949564	-0.200122	-0.0243654	-0.383818	0.299694	0.118567	0	0	0.376057	-0.130809	-0.230114	0.962543	0.0873412	0	0	-0.261696	-0.0779573	0.0780403	0.28668	-0.464667	0.0179225	1.37758	0.929152	0	0	0.289919	-0.439687	-0.0112696	1.60743	0.983319	0	0
1.13	-2.93843	1.37781	-1.73796	1.00394	0.568777	0.949649	-0.219064	-0.0232003	-0.366438	0.282533	0.112599	0	0	0.371663	-0.125346	-0.252281	0.896673	0.0902148	0	0	-0.263107	-0.0837385	0.0879241	0.293749	-0.442986	-0.112556	1.34454	1.5708	0	0	0.294769	-0.436065	-0.0208967	1.6036	1.10464	0	0
1.14	-2.92281	1.3834	-1.75801	1.00435	0.579289	0.948579	-0.226873	-0.024607	-0.364557	0.278357	0.118269	0	0	0.374893	-0.117666	-0.268601	0.83092	0.0920709	0	0	-0.257975	-0.0863438	0.091258	0.296004	-0.442327	-0.109558	1.34628	1.5708	0	0	0.294713	-0.436555	-0.0256035	1.60587	1.10867	0	0
1.15	-2.90649	1.38839	-1.77817	1.00461	0.589823	0.947185	-0.235209	-0.026227	-0.362471	0.274887	0.126581	0	0	0.375579	-0.108642	-0.285296	0.761186	0.0923027	0	0	-0.254186	-0.0887651	0.0921204	0.300781	-0.441112	-0.105051	1.34752	1.5708	0	0	0.29083	-0.428354	-0.0984312	1.62717	0.683338	0	0
1.16	-2.88963	1.39343	-1.79815	1.00464	0.600385	0.945464	-0.243271	-0.028058	-0.361079	0.272356	0.136746	0	0	0.374661	-0.0979121	-0.300389	0.687525	0.0906663	0	0	-0.248798	-0.0910117	0.0972173	0.300612	-0.4413	-0.107605	1.34984	1.5708	0	0	0.297084	-0.437186	-0.032923	1.6103	1.11178	0	0
1.17	-2.85565	1.39972	-1.83326	1.00397	0.610981	0.943085	-0.255641	-0.0351683	-0.332285	0.267138	0.152894	0	0	0.374484	-0.0812548	-0.311248	0.609947	0.0878498	0	0	-0.24194	-0.0945459	0.0982668	0.302457	-0.441801	-0.107227	1.35217	1.5708	0	0	0.298585	-0.437051	-0.0346838	1.61217	1.10648	0	0
1.18	-2.8344	1.40463	-1.85612	1.00356	0.621702	0.940705	-0.26455	-0.0374575	-0.330815	0.264027	0.162689	0	0	0.369839	-0.0662818	-0.321471	0.529005	0.0839533	0	0	-0.2371	-0.0964452	0.100518	0.304409	-0.442323	-0.107375	1.35425	1.5708	0	0	0.301045	-0.436728	-0.0366404	1.61333	1.11294	0	0
1.19	-2.81613	1.41435	-1.87268	1.00264	0.632399	0.937378	-0.265603	-0.0391635	-0.340811	0.268775	0.17894	0	0	0.372359	-0.0517794	-0.326042	0.453163	0.0844904	0	0	-0.226839	-0.0941424	0.0973267	0.302161	-0.463257	0.0196713	1.38763	0.962138	0	0	0.299387	-0.440416	-0.0336039	1.61903	1.00955	0	0
1.2	-2.798	1.41465	-1.89157	1.00191	0.643329	0.935119	-0.281957	-0.0414485	-0.339177	0.260967	0.184844	0	0	0.355745	-0.0314534	-0.326161	0.362854	0.0800394	0	0	-0.227316	-0.0970719	0.102331	0.309556	-0.446109	-0.105013	1.35775	1.5708	0	0	0.308318	-0.436183	-0.036695	1.61405	1.12117	0	0
1.21	-2.78465	1.41897	-1.90433	1.0009	0.654383	0.932066	-0.291734	-0.0432248	-0.345026	0.260099	0.19711	0	0	0.344002	-0.0129651	-0.317688	0.278153	0.0767942	0	0	-0.222548	-0.0962992	0.103507	0.312923	-0.448462	-0.103865	1.35798	1.5708	0	0	0.312536	-0.436075	-0.035343	1.61377	1.12335	0	0
